<?xml version="1.0" encoding="UTF-8"?>
<svg id="Layer_2" data-name="Layer 2" xmlns="http://www.w3.org/2000/svg" viewBox="0 0 252.09 146.2">
  <defs>
    <style>
      .cls-1 {
        fill: #0b0807;
      }
    </style>
  </defs>
  <g id="Layer_1-2" data-name="Layer 1">
    <g id="Logo_Just_Beer_Monogram" data-name="Logo Just Beer Monogram">
      <path class="cls-1" d="M97.19,116.21c-.4,1.07-.82,2.11-1.26,3.11.43-1.01.85-2.04,1.26-3.11Z"/>
      <g>
        <path class="cls-1" d="M95.93,119.32c.44-1,.86-2.04,1.26-3.11-.41,1.07-.83,2.1-1.26,3.11Z"/>
        <path class="cls-1" d="M219.89,0h-72.72c-.49,0-.91.35-1.01.83-.23,1.18-.47,2.36-.71,3.56-1.94-1.16-4.1-1.71-6.14-1.93-5.19-.52-10.8,2.95-13.06,6.51-1.76,2.76-2.87,6.1-3.2,9.67l-1.85,19.97-3.38-9.32h0c.73-3.11,1.47-6.28,2.25-9.65.15-.65-.34-1.29-1.01-1.29h-5.17c-.63-2-4.25-12.08-13.87-11.48-5.93.35-10.19,3.45-11.99,8.73-.3.89-.52,1.83-.64,2.8l-15.16.02c-.53,0-.96.37-1.02.9-1.24,11.36-8.89,44.61-13.21,63.34-.8,3.45-2.14,7.59-5.26,9.62-3.19,2.08-7.72,2.15-11.33,1.5-9.63-1.73-18.9-7.75-26.24-14.17-.57-.49-1.44-.24-1.66.47L0,124.06c.67.51,1.34,1.03,2.02,1.54,5.91,4.46,12.82,7.92,19.67,10.61,10.9,4.29,22.64,7.07,34.39,7.05,9.45-.01,16.88-1.54,22.83-4.52,6.23,4.83,13.8,7.46,21.45,7.46.98,0,1.96-.04,2.93-.13.01,0,.35-.03.36-.03,10.72-1.04,20.18-8.52,25.97-20.53.33-.68.7-1.53,1.09-2.51h64.81c26.51,0,38.16-8.03,43.37-30.67,3.53-15.25,1.08-26.23-11.33-30.33-1.84-.66-4.3-1.15-7.21-1.32l.31-.98c4.13-.49,7.81-1.15,10.88-2.29,11.49-3.94,16.4-9.85,19.31-22.31,5.36-21.97-7.05-35.1-30.96-35.1ZM92.59,18.39c.07-.39.18-.77.3-1.14,1.12-3.31,3.55-5.03,7.43-5.26,4.48-.24,6.97,3.86,8.07,6.38.44.98.66,1.72.7,1.87l6.58,18.19.63,1.73c-.38.07-.74.14-1.08.21-2.18.47-3.74,1.01-4.2,1.36-1.13.86-1.35,2.47-.49,3.59.5.67,1.27,1.02,2.05,1.02.39,0,.79-.09,1.16-.28.05-.02.1-.04.17-.06,1.6-.52,8.94-2.3,15.19-.74,1.36.32,2.76-.5,3.1-1.88.34-1.37-.49-2.77-1.87-3.11-1.33-.33-2.7-.54-4.07-.65l1.9-20.5c.26-2.76,1.09-5.32,2.41-7.39,1.39-2.18,5.29-4.48,8.2-4.17,2.02.21,4.05.75,5.54,2.4,1.51,1.68,2.46,4.52,2.26,9.35-.18,4.39-3.26,15.89-6.19,25.49-1.39.06-2.68.19-3.88.38-9.09,1.46-12.77,6.54-14.2,9.71-1.15,2.53-1.55,5.26-1.41,7.8-1.15-3.9-4.16-7.65-8.38-10.61-1.47-1.03-3.08-1.96-4.81-2.77-2.47-1.15-4.86-2-7.16-2.55l-7.87-24.01c-.33-1.52-.35-3.01-.08-4.36ZM81.82,137.1c-.35.22-.7.43-1.05.63.39-.23.78-.47,1.16-.71-.04.03-.07.06-.11.08ZM156.99,71.78c-2.57,9.99-18.4,14.02-18.55,14.06-.9.23-1.61.91-1.86,1.79-.08.29-7.92,27.78-11.44,35.37-.05.1-.1.19-.14.28-2.36,4.9-9.22,16.43-21.79,17.65l-.37.03c-6.69.59-13.5-1.25-19.21-5.12.33-.24.65-.49.96-.75.24-.19.48-.38.71-.59.75-.63,1.47-1.3,2.15-2.01.18-.18.35-.36.52-.54.47-.5.93-1.02,1.37-1.56.35-.42.7-.86,1.02-1.3.02-.01.02-.02.03-.03.19-.25.38-.5.55-.76.37-.52.74-1.05,1.09-1.6.15-.23.3-.46.45-.7.49-.8.96-1.62,1.42-2.47.2-.38.4-.78.61-1.17.49-.98.96-1.99,1.42-3.04.43-1.01.85-2.04,1.26-3.11,2.57-.36,5.63-1.68,8.47-5.23,2.24-2.8,3.36-6.13,3.32-9.9-.05-4.27-1.7-8.5-4.62-11.95-.54-.66-1.14-1.29-1.78-1.88l-16.36-15.16c-2.19-2.02-3.62-4.56-4.03-7.16-.43-2.79.54-5.92,2.91-9.3,3.23-4.62,8.44-5.01,13.01-4.14.02,0,.04.01.06.01,2.96.57,5.65,1.66,7.36,2.46,2.2,1.02,4.14,2.26,5.76,3.64,2.36,1.99,4.01,4.27,4.68,6.57.57,1.94.35,3.7-.63,5.24-1.79,2.8-4.64,3.44-7.33,3.25-3.46-.24-6.64-1.86-6.87-1.97-1.25-.66-2.8-.18-3.46,1.08-.66,1.25-.18,2.8,1.08,3.46,2,1.06,4.98,2.13,8.15,2.45,4.6.48,9.62-.59,12.76-5.51,1.19-1.87,1.77-3.93,1.73-6.11.49,1.86,1.27,3.47,2.24,4.63,1.16,1.38,3.22,2.86,6.05,3.72,1.29.4,2.75.67,4.35.74,4.13.17,10.4-.95,16.82-7.37,1-1,1-2.63,0-3.63-1-1.01-2.62-1-3.63,0-5.1,5.11-9.83,6.03-12.97,5.88-1.26-.06-2.41-.3-3.4-.64-1.54-.52-2.7-1.29-3.29-2-1.41-1.67-2.43-6.34-.6-10.39,1.42-3.12,4.22-5.27,8.25-6.33,1.73-.46,3.69-.72,5.86-.77,6.83-.17,11.66,1.47,14.34,4.84,3.91,4.93,2.66,12.79,1.57,17.04ZM99.3,109.99c.82-2.72,1.57-5.59,2.28-8.63.41-1.76.8-3.49,1.19-5.19.68,1.6,1.06,3.29,1.08,4.97.03,2.55-.72,4.78-2.2,6.64-.75.94-1.53,1.67-2.35,2.21ZM194.3,84.3c-1.84,8.2-5.83,10.82-13.03,10.82-3.05,0-6.48,0-10.28-.24-.63-.04-1.1-.61-.97-1.23,1.43-6.73,3.12-14.38,4.94-22.19.1-.45.51-.79.98-.8,3.98-.16,7.69-.3,10.85-.3,7.05,0,9.96,3.45,7.51,13.94ZM204.41,38.55c-1.99,8.52-5.98,11.64-12.87,11.8-3.17,0-6.59,0-10.37-.12-.65-.02-1.14-.65-.99-1.29,1.96-8.24,3.79-16.03,5.36-22.47.11-.44.49-.74.94-.77,3.85-.27,7.43-.27,10.88-.27,6.13,0,9.35,3.27,7.05,13.12Z"/>
      </g>
    </g>
  </g>
</svg>